<svg xmlns="http://www.w3.org/2000/svg" viewBox="0 0 100 100">
  <rect width="100" height="100" rx="22" fill="#0a2540"/>
  <!-- Fox ears -->
  <polygon points="22,48 30,20 42,42" fill="#e8631a"/>
  <polygon points="58,42 70,20 78,48" fill="#e8631a"/>
  <polygon points="26,46 31,28 39,42" fill="#fff8f0"/>
  <polygon points="61,42 69,28 74,46" fill="#fff8f0"/>
  <!-- Fox head -->
  <ellipse cx="50" cy="56" rx="26" ry="24" fill="#e8631a"/>
  <!-- White face -->
  <ellipse cx="50" cy="62" rx="16" ry="13" fill="#fff8f0"/>
  <!-- Eyes -->
  <circle cx="42" cy="52" r="4.5" fill="#1a1a2e"/>
  <circle cx="58" cy="52" r="4.5" fill="#1a1a2e"/>
  <circle cx="43.5" cy="50.5" r="1.5" fill="white"/>
  <circle cx="59.5" cy="50.5" r="1.5" fill="white"/>
  <!-- Nose -->
  <ellipse cx="50" cy="60" rx="3" ry="2" fill="#1a1a2e"/>
  <!-- Wave on surfboard shape at bottom -->
  <path d="M24 82 Q37 76 50 82 Q63 88 76 82" stroke="#00b4d8" stroke-width="3.5" fill="none" stroke-linecap="round"/>
  <path d="M30 90 Q42 85 54 90 Q66 95 78 90" stroke="#00b4d8" stroke-width="2.5" fill="none" stroke-linecap="round" opacity=".6"/>
</svg>
